<svg width="140" height="136" viewBox="0 0 140 136" fill="none" xmlns="http://www.w3.org/2000/svg">
<path d="M71.8483 59.9183C71.7966 64.8357 71.8487 69.7521 72.0035 74.6673C72.1193 74.9429 72.2736 75.1945 72.4674 75.4202C91.5636 75.5205 110.66 75.6208 129.756 75.721C138.327 77.9849 141.371 83.2526 138.891 91.5238C136.999 94.9642 134.058 97.0213 130.066 97.6947L9.91468 97.9954C3.9361 100.437 2.33596 104.501 5.11487 110.186C6.32342 111.802 7.9237 112.856 9.91468 113.347C50.2837 113.35 90.644 113.55 130.995 113.949C136.522 115.263 139.515 118.675 139.975 124.183C139.76 129.906 136.869 133.617 131.304 135.32C87.9511 135.52 44.5979 135.52 1.24475 135.32C0.418946 134.417 1.24475 132.611 1.24475 132.611L130.066 132.31C132.7 131.705 134.662 130.25 135.95 127.946C136.404 127.691 136.661 127.289 136.723 126.742C136.975 125.481 136.924 124.276 136.569 123.129C135.657 119.484 133.283 117.327 129.447 116.658L9.60511 116.357C5.83356 115.447 3.14999 113.29 1.55432 109.885C0.740218 106.966 0.740214 104.055 1.55432 101.156C3.2216 97.4824 6.11209 95.326 10.2252 94.6849C50.1721 94.5847 90.1192 94.4834 130.066 94.3831C134.829 93.0647 137.047 90.0046 136.723 85.2025C135.843 81.9393 133.728 79.8829 130.376 79.0325C110.144 78.9323 89.9126 78.831 69.6813 78.7308C69.4234 78.4801 69.1648 78.2295 68.9069 77.9788C68.752 71.9597 68.6999 65.9393 68.7516 59.9183H71.8483ZM70.2994 45.7708C72.6832 45.7717 74.9542 45.9728 77.1119 46.3734C76.0291 49.5331 74.9968 52.744 74.0153 56.0052C73.8527 56.2134 73.6462 56.3637 73.3961 56.4564C71.2285 56.6571 69.0608 56.6571 66.8932 56.4564C66.7384 56.3059 66.5832 56.1557 66.4283 56.0052C65.2721 52.8415 64.2917 49.631 63.4869 46.3734C65.6447 45.9727 67.9157 45.7717 70.2994 45.7708ZM57.9127 28.6136C66.1706 28.2124 74.4283 28.2124 82.6862 28.6136C81.2549 32.5745 80.0164 36.5877 78.9703 40.6536C78.587 41.1695 78.3807 41.7714 78.3512 42.4593C72.8569 42.5553 67.386 42.4553 61.9391 42.1585C60.7429 37.6089 59.4004 33.094 57.9127 28.6136ZM88.2614 9.34895C88.3131 14.2664 88.2609 19.1836 88.1061 24.099C87.745 24.45 87.3842 24.8007 87.0231 25.1517C81.4491 25.202 75.8744 25.2518 70.3004 25.3021C64.4931 25.3487 58.7127 25.1985 52.9596 24.8509C52.7658 24.6252 52.6106 24.3745 52.4948 24.099C52.3399 19.1836 52.2887 14.2664 52.3405 9.34895H88.2614ZM1.24475 0.0188724C47.2819 -0.031395 93.3192 0.0187612 139.356 0.169263C139.511 0.319705 139.666 0.469993 139.821 0.620435C140.027 2.22569 140.027 3.83159 139.821 5.43684C139.563 5.68749 139.304 5.93814 139.047 6.18879C93.2159 6.38956 47.385 6.38956 1.55432 6.18879C1.29642 5.93811 1.03781 5.68753 0.779911 5.43684C0.573363 3.83159 0.573363 2.22569 0.779911 0.620435C1.00186 0.456752 1.1571 0.256245 1.24475 0.0188724Z" fill="#DDDDDD"/>
</svg>
